<svg fill="#000000" xmlns="http://www.w3.org/2000/svg"  viewBox="0 0 48 48" width="24px" height="24px"><path d="M 24 4 C 12.972 4 4 12.972 4 24 C 4 35.028 12.972 44 24 44 C 35.028 44 44 35.028 44 24 C 44 12.972 35.028 4 24 4 z M 17.5 14 C 17.985 14 18.4135 14.234797 18.6875 14.591797 L 18.691406 14.589844 L 24.742188 22.5 L 29 22.5 L 29 15.5 C 29 14.671 29.672 14 30.5 14 C 31.328 14 32 14.671 32 15.5 L 32 22.5 L 33.5 22.5 C 34.328 22.5 35 23.171 35 24 C 35 24.829 34.328 25.5 33.5 25.5 L 32 25.5 L 32 32.5 C 32 33.329 31.328 34 30.5 34 C 30.015 34 29.5865 33.766203 29.3125 33.408203 L 29.308594 33.410156 L 23.257812 25.5 L 19 25.5 L 19 32.5 C 19 33.329 18.328 34 17.5 34 C 16.672 34 16 33.329 16 32.5 L 16 25.5 L 14.5 25.5 C 13.672 25.5 13 24.829 13 24 C 13 23.171 13.672 22.5 14.5 22.5 L 16 22.5 L 16 15.5 C 16 14.671 16.672 14 17.5 14 z M 19 19.931641 L 19 22.5 L 20.964844 22.5 L 19 19.931641 z M 27.035156 25.5 L 29 28.068359 L 29 25.5 L 27.035156 25.5 z"/></svg>